<svg width="127" height="32" viewBox="0 0 127 32" fill="none" xmlns="http://www.w3.org/2000/svg">
<path fill-rule="evenodd" clip-rule="evenodd" d="M93.6652 8.20367H97.8816L98.7933 4.5H94.5768L93.6652 8.20367ZM90.047 24.2149H93.5227L97.1124 9.77061H93.6367L90.047 24.2149ZM118.086 24.5C114.126 24.5 111.648 21.765 111.648 18.4602C111.648 16.3519 112.445 14.2722 114.724 12.3918L117.744 9.91322C118.343 9.6853 119.14 9.48587 120.337 9.48587C123.271 9.48587 126.377 11.5371 126.092 15.3833L122.844 18.1183H114.981C115.066 20.0556 116.434 21.2806 118.656 21.2806C120.08 21.2806 121.22 20.7678 122.331 19.9986L123.528 22.9615C121.932 24.0157 120.223 24.5 118.086 24.5ZM115.551 15.5542H122.73C122.759 13.9018 121.847 12.6197 119.824 12.6197C117.887 12.6197 116.32 13.9018 115.551 15.5542ZM103.196 20.5682L109.379 9.77057H113.367L104.735 24.2149H100.063L98.5812 9.77057H102.285L103.196 20.5682ZM82.8484 24.5C79.857 24.5 77.6633 22.9616 78.2331 20.1126H81.6518C81.4809 21.2807 82.3926 21.651 83.3612 21.651C84.6717 21.651 85.5834 20.9388 85.5834 20.1126C85.5834 19.3718 84.9566 18.973 84.0449 18.6311L82.535 18.0613C80.7117 17.3776 79.9709 16.3519 79.9709 14.8989C79.9709 13.7309 80.5407 12.4488 81.9937 11.2522L83.6176 9.91322C84.1304 9.65682 84.9281 9.48588 85.8398 9.48588C88.7457 9.48588 90.6545 11.2238 90.0562 14.0158H86.6375C86.7799 13.0756 86.4096 12.3349 85.1845 12.3349C84.0449 12.3349 83.2188 12.9901 83.2188 13.8733C83.2188 14.614 83.7316 14.9559 84.3583 15.1838L86.0107 15.8106C87.948 16.5513 88.9167 17.406 88.9167 18.973C88.9167 20.0556 88.4893 21.3376 86.7515 22.7621L85.0421 24.1581C84.5293 24.3291 83.8455 24.5 82.8484 24.5ZM77.1924 9.77057L74.9132 11.6224L75.3975 9.77057H71.9503L68.3321 24.2149H71.8079L73.8021 16.2093C74.2865 14.215 75.3691 13.3318 77.3633 13.3318H79.1867L80.0983 9.77057H77.1924ZM60.7425 24.5C56.7824 24.5 54.3038 21.765 54.3038 18.4602C54.3038 16.3519 55.1015 14.2722 57.3807 12.3918L60.4006 9.91322C60.9989 9.6853 61.7966 9.48587 62.9931 9.48587C65.9276 9.48587 69.0329 11.5371 68.748 15.3833L65.5002 18.1183H57.6371C57.7226 20.0556 59.0901 21.2806 61.3123 21.2806C62.7367 21.2806 63.8763 20.7678 64.9874 19.9986L66.184 22.9615C64.5886 24.0157 62.8792 24.5 60.7425 24.5ZM58.2069 15.5542H65.3863C65.4147 13.9018 64.5031 12.6197 62.4803 12.6197C60.543 12.6197 58.9761 13.9018 58.2069 15.5542ZM52.028 9.77055L45.8458 20.5682L44.9341 9.77055H41.2305L42.7119 24.2149H47.3842L56.0165 9.77055H52.028Z" fill="#09090B"/>
<path fill-rule="evenodd" clip-rule="evenodd" d="M7.74062 2.43622C7.69532 2.46464 7.65017 2.49328 7.60518 2.52214L12.0547 10.7665L12.1233 10.8936L12.2568 10.8384L15.3881 9.54132L15.472 9.50658L15.4852 9.41677L16.8678 0.0123925C16.8143 0.0102969 16.7606 0.00846469 16.7069 0.00689709L15.3269 9.3935L12.1955 10.6905L7.74062 2.43622ZM14.2115 0.126247C14.1567 0.133147 14.102 0.140323 14.0474 0.147775L13.19 6.84706L10.2492 1.1558C10.1995 1.17584 10.15 1.19612 10.1005 1.21664L13.1542 7.12641L13.2835 7.37661L13.3192 7.09726L14.2115 0.126247ZM19.6607 0.368332L16.977 9.34523L16.9357 9.48361L17.0691 9.53888L20.2005 10.8359L20.2843 10.8707L20.3572 10.8165L27.9851 5.14401C27.9487 5.10459 27.9121 5.06536 27.8753 5.02631L20.2617 10.6881L17.1303 9.39106L19.8172 0.403342C19.7651 0.391418 19.713 0.379747 19.6607 0.368332ZM22.348 1.21074L20.3285 7.54873L20.243 7.81706L20.4658 7.64481L26.0254 3.34686C25.9818 3.31306 25.938 3.27949 25.8941 3.24614L20.5513 7.37648L22.4961 1.27294C22.4468 1.25196 22.3975 1.23123 22.348 1.21074ZM29.7085 7.37264L21.4644 11.822L21.3373 11.8906L21.3925 12.0241L22.6896 15.1554L22.7243 15.2393L22.8141 15.2525L32.219 16.6352C32.2211 16.5817 32.2229 16.528 32.2245 16.4743L22.8374 15.0942L21.5403 11.9628L29.7944 7.50808C29.766 7.46278 29.7373 7.41763 29.7085 7.37264ZM31.0142 9.86788L25.1045 12.9215L24.8543 13.0508L25.1336 13.0866L32.1049 13.9788C32.098 13.9241 32.0909 13.8694 32.0834 13.8148L25.3838 12.9573L31.075 10.0165C31.055 9.96686 31.0347 9.91731 31.0142 9.86788ZM31.8628 19.4303L22.8851 16.7465L22.7467 16.7051L22.6914 16.8385L21.3944 19.9699L21.3596 20.0537L21.4138 20.1266L27.0863 27.7546C27.1258 27.7182 27.165 27.6816 27.204 27.6448L21.5422 20.0311L22.8392 16.8998L31.8278 19.5869C31.8397 19.5348 31.8514 19.4826 31.8628 19.4303ZM31.0202 22.1176L24.6816 20.0979L24.4132 20.0124L24.5855 20.2352L28.8836 25.7951C28.9174 25.7515 28.951 25.7077 28.9844 25.6638L24.8538 20.3207L30.958 22.2657C30.9789 22.2165 30.9997 22.1671 31.0202 22.1176ZM24.8586 29.4771L20.4092 21.2329L20.3406 21.1059L20.2072 21.1611L17.0759 22.4582L16.992 22.4929L16.9788 22.5827L15.596 31.9876C15.6496 31.9897 15.7032 31.9915 15.757 31.9931L17.1371 22.606L20.2684 21.3089L24.7232 29.563C24.7685 29.5346 24.8137 29.506 24.8586 29.4771ZM22.3634 30.7828L19.3097 24.8731L19.1805 24.6229L19.1447 24.9022L18.2524 31.8735C18.3072 31.8666 18.3619 31.8595 18.4165 31.852L19.274 25.1524L22.2147 30.8437C22.2644 30.8236 22.314 30.8033 22.3634 30.7828ZM12.8009 31.6314L15.4846 22.6544L15.5259 22.5161L15.3925 22.4608L12.2612 21.1637L12.1773 21.129L12.1045 21.1832L4.47702 26.8553C4.51344 26.8947 4.55006 26.9339 4.58687 26.973L12.1999 21.3116L15.3313 22.6086L12.6444 31.5963C12.6965 31.6083 12.7487 31.6199 12.8009 31.6314ZM10.1137 30.7888L12.1332 24.4509L12.2187 24.1826L11.9959 24.3549L6.43661 28.6525C6.4802 28.6863 6.52398 28.7199 6.56792 28.7532L11.9104 24.6232L9.9656 30.7265C10.0148 30.7475 10.0642 30.7683 10.1137 30.7888ZM2.75409 24.627L10.9984 20.1775L11.1255 20.1089L11.0702 19.9755L9.77319 16.8441L9.73845 16.7603L9.64864 16.7471L0.243769 15.3643C0.241676 15.4179 0.239847 15.4715 0.238282 15.5252L9.62537 16.9054L10.9224 20.0367L2.66817 24.4916C2.69659 24.5369 2.72523 24.582 2.75409 24.627ZM1.44844 22.1317L7.35827 19.078L7.60847 18.9487L7.32912 18.913L0.357764 18.0207C0.364667 18.0755 0.371846 18.1302 0.379302 18.1848L7.07893 19.0423L1.38759 21.9831C1.40763 22.0328 1.42791 22.0823 1.44844 22.1317ZM0.599974 12.5696L9.57769 15.2535L9.71607 15.2948L9.77134 15.1614L11.0684 12.0301L11.1031 11.9462L11.049 11.8734L5.37641 4.2453C5.33699 4.28172 5.29775 4.31833 5.2587 4.35514L10.9206 11.9688L9.62352 15.1002L0.634995 12.4131C0.623067 12.4651 0.611393 12.5173 0.599974 12.5696ZM1.44257 9.88234L7.78119 11.9021L8.04952 11.9876L7.87727 11.7647L3.57911 6.20484C3.54532 6.24843 3.51174 6.2922 3.47839 6.33615L7.60894 11.6792L1.50478 9.73423C1.48381 9.78348 1.46307 9.83284 1.44257 9.88234Z" fill="#09090B"/>
<path fill-rule="evenodd" clip-rule="evenodd" d="M16.707 0.00693197C16.549 0.00232133 16.3905 0 16.2314 0C15.5473 0 14.8731 0.0429432 14.2115 0.126281L13.2836 7.37666L10.1006 1.21668C9.27696 1.55864 8.48807 1.96742 7.74069 2.43626L12.1956 10.6906L15.3269 9.39355L16.707 0.00693197ZM3.5791 6.20498C4.09045 5.54542 4.65224 4.92692 5.25867 4.35527L10.9205 11.9689L9.62346 15.1002L0.635049 12.4132C0.834987 11.5402 1.10633 10.6945 1.44261 9.88245L8.04945 11.9876L3.5791 6.20498ZM0.357837 18.0208C0.274427 17.3589 0.231445 16.6845 0.231445 16C0.231445 15.8412 0.233758 15.683 0.238352 15.5253L9.62543 16.9054L10.9225 20.0368L2.66825 24.4916C2.19936 23.7443 1.79053 22.9554 1.44852 22.1318L7.60854 18.9488L0.357837 18.0208ZM6.43668 28.6525C5.77711 28.1412 5.1586 27.5794 4.58694 26.973L12.1999 21.3117L15.3313 22.6087L12.6444 31.5964C11.7715 31.3964 10.9257 31.125 10.1137 30.7888L12.2187 24.1827L6.43668 28.6525ZM18.2525 31.8736C17.5906 31.957 16.916 32 16.2314 32C16.0728 32 15.9146 31.9977 15.757 31.9931L17.1372 22.606L20.2685 21.309L24.7233 29.5631C23.9759 30.032 23.1871 30.4408 22.3635 30.7828L19.1805 24.6229L18.2525 31.8736ZM28.8837 25.7952C28.3723 26.4547 27.8105 27.0732 27.2041 27.6448L21.5423 20.0312L22.8393 16.8999L31.8278 19.587C31.6279 20.4599 31.3565 21.3057 31.0202 22.1177L24.4133 20.0125L28.8837 25.7952ZM32.105 13.9789C32.1884 14.6408 32.2314 15.3154 32.2314 16C32.2314 16.1587 32.2291 16.3168 32.2245 16.4744L22.8375 15.0942L21.5404 11.9629L29.7945 7.50813C30.2634 8.25548 30.6722 9.04433 31.0143 9.86793L24.8544 13.0509L32.105 13.9789ZM26.0255 3.34694C26.6851 3.85825 27.3037 4.42 27.8754 5.0264L20.2618 10.6882L17.1304 9.39119L19.8173 0.403383C20.6903 0.603266 21.536 0.874558 22.3481 1.21078L20.243 7.81719L26.0255 3.34694Z" fill="#09090B"/>
</svg>
